<?xml version="1.0" encoding="UTF-8"?>
<svg version="1.1" xmlns="http://www.w3.org/2000/svg" width="561" height="445">
<path d="M0 0 C1.15459496 0.25625593 2.30918993 0.51251186 3.49877262 0.77653313 C6.67001367 1.48136875 9.8402704 2.19044493 13.01014495 2.9013958 C16.41059624 3.6629602 19.81228225 4.41897157 23.21382141 5.17565918 C29.80829521 6.64352645 36.40164216 8.1163939 42.99460953 9.59101081 C50.61704858 11.29567596 58.24061389 12.99527695 65.86425579 14.69455314 C78.24449062 17.45416915 90.62399172 20.21705739 103.00289166 22.98265481 C118.94600419 26.54454054 134.89097284 30.09800011 150.83708954 33.6464119 C159.0713445 35.47904211 167.30516918 37.3136042 175.53900146 39.14813232 C179.92366895 40.12503476 184.30848581 41.1012626 188.69342041 42.07696533 C193.8114462 43.21594765 198.92899665 44.35704256 204.04619408 45.4997406 C205.88488167 45.90999641 207.72372193 46.31956879 209.56273842 46.72834778 C214.37494166 47.79823138 219.18406731 48.87996088 223.98814011 49.98581696 C225.49174193 50.33054361 226.99625848 50.6713017 228.50160599 51.00832367 C230.68893703 51.50006721 232.87186624 52.00812965 235.05444336 52.52050781 C236.91565575 52.94866287 236.91565575 52.94866287 238.81446838 53.38546753 C243.97118307 55.06930876 248.52136153 57.66803161 251.22021484 62.49755859 C252.33363127 66.15592686 252.46714547 67.8878732 251.02099609 71.45849609 C249.11586795 74.67365812 247.58105033 76.13753158 244.53271484 78.24755859 C243.55173828 78.92689453 242.57076172 79.60623047 241.56005859 80.30615234 C236.56664794 83.58253057 231.5093958 86.7478042 226.42724609 89.88427734 C222.34323557 92.40960582 218.3078698 95.00470558 214.28271484 97.62255859 C207.27987124 102.17170787 200.25523968 106.68583279 193.22021484 111.18505859 C192.16455322 111.86028564 191.1088916 112.5355127 190.02124023 113.23120117 C185.65821741 116.02136496 181.29467154 118.81071023 176.93115234 121.60009766 C166.11711421 128.51372645 155.30510269 135.42931325 144.53857422 142.41674805 C138.78694913 146.14375099 133.00533784 149.82282233 127.22021484 153.49755859 C117.85400633 159.44754288 108.52615398 165.45386562 99.22021484 171.49755859 C88.96926694 178.15498251 78.68476258 184.75604415 68.3671875 191.30981445 C62.86516835 194.80715169 57.37644453 198.32340996 51.90771484 201.87255859 C30.36936823 215.84782167 8.7322644 229.68542644 -13.02978516 243.31005859 C-13.69179932 243.72497559 -14.35381348 244.13989258 -15.03588867 244.56738281 C-20.05998844 247.70315351 -23.72427841 249.63228418 -29.77978516 248.49755859 C-34.01016092 246.19754847 -36.32878279 243.43425581 -38.40478516 239.12255859 C-39.25716209 230.88291488 -33.80709613 224.02351324 -29.46728516 217.43505859 C-28.19968868 215.47800079 -26.9341248 213.51962523 -25.67041016 211.56005859 C-25.02394531 210.55845703 -24.37748047 209.55685547 -23.71142578 208.52490234 C-20.63758347 203.70745484 -17.67431373 198.82479373 -14.71728516 193.93505859 C-8.6688042 183.94832576 -2.54669476 174.00982283 3.61132812 164.09033203 C6.85430207 158.86417371 10.08945103 153.63316654 13.32568359 148.40283203 C16.1423418 143.85139951 18.96210334 139.30193106 21.78662109 134.75537109 C22.37185547 133.81242188 22.95708984 132.86947266 23.56005859 131.89794922 C24.6749394 130.10175236 25.79076285 128.30614011 26.90771484 126.51123047 C33.8328995 116.73380301 33.8328995 116.73380301 35.22021484 105.49755859 C31.00362691 96.85797633 24.33140729 89.31778484 18.47802734 81.75146484 C15.66232621 78.09824378 12.9429942 74.38999665 10.28271484 70.62255859 C6.39124716 65.11363974 2.41823953 59.67044024 -1.59228516 54.24755859 C-7.39980827 46.39074049 -13.14138052 38.48888172 -18.85009766 30.56005859 C-22.00575149 26.17777489 -25.19215911 21.81852851 -28.38916016 17.46630859 C-31.10960148 13.61489728 -31.3905014 10.11663777 -30.77978516 5.49755859 C-28.98527485 1.83951836 -27.38855568 -0.06356033 -24.09228516 -2.43994141 C-16.5488839 -4.85952294 -7.53879886 -1.69942878 0 0 Z " fill="#884EC4" transform="translate(177.77978515625,138.50244140625)"/>
<path d="M0 0 C9.10836745 6.62960079 15.07561667 14.79416783 17 26 C18.36319531 41.90948673 14.64790063 56.0805788 4.77734375 68.8828125 C-4.29275752 79.43345328 -15.42286451 86.8497958 -29.484375 88.37890625 C-40.14727457 88.73976857 -48.20086498 86.73056663 -56.375 79.75 C-65.16813538 71.17982844 -68.96460121 61.86549408 -69.375 49.5 C-68.83039729 34.27290819 -62.22338542 20.26507501 -51.66796875 9.40625 C-38.29862472 -2.65160641 -16.65948968 -10.49695279 0 0 Z " fill="#7946BF" transform="translate(383,61)"/>
<path d="M0 0 C3.8026029 2.0050088 5.61790841 3.42686262 8 7 C9.04094273 12.07747032 8.99148746 16.82405306 8.53442383 21.95141602 C8.47272003 22.71333252 8.41101624 23.47524902 8.34744263 24.26025391 C8.14248734 26.75893402 7.92556611 29.25637957 7.70703125 31.75390625 C7.55804177 33.5007102 7.40925655 35.24753158 7.26066589 36.99436951 C6.94771063 40.64708364 6.62804967 44.29914264 6.30444336 47.95092773 C5.89164076 52.62223285 5.50210975 57.29516174 5.11839771 61.96893406 C4.81871212 65.57400304 4.50339256 69.17758096 4.18372154 72.78092766 C4.0334451 74.50316723 3.88875768 76.22590425 3.74985695 77.94909859 C3.5537793 80.36049076 3.33585756 82.76897611 3.11254883 85.17797852 C3.05990372 85.88411789 3.00725861 86.59025726 2.95301819 87.3177948 C2.38490463 93.03707685 0.21316024 96.78683976 -3.8125 100.8125 C-6.94422668 102.5125802 -9.44377611 102.87737159 -13 103 C-22.64260387 99.02353754 -28.41749259 89.55992302 -34.625 81.53491211 C-38.17112728 76.97762285 -41.88414067 72.59410307 -45.6875 68.25 C-63.2491701 48.17694411 -63.2491701 48.17694411 -63.49609375 40.16015625 C-61.84634685 32.97661266 -56.5202573 30.04961998 -50.62084961 26.34106445 C-49.52909424 25.67163818 -48.43733887 25.00221191 -47.3125 24.3125 C-45.61548102 23.25056399 -43.91846436 22.18862357 -42.22224426 21.12541199 C-40.53681696 20.07087128 -38.84800887 19.02174027 -37.15917969 17.97265625 C-32.88491265 15.30371671 -28.65778581 12.56570404 -24.4375 9.8125 C-22.57213688 8.59846706 -20.70578064 7.38641171 -18.83300781 6.18383789 C-17.52283083 5.33766738 -16.22095403 4.47858911 -14.92480469 3.61108398 C-13.88501465 2.92961304 -13.88501465 2.92961304 -12.82421875 2.234375 C-12.20248779 1.82026367 -11.58075684 1.40615234 -10.94018555 0.97949219 C-7.38523065 -0.81520758 -3.84512141 -0.78181766 0 0 Z " fill="#7F49C0" transform="translate(365,293)"/>
<path d="M0 0 C0.99134419 2.61739045 1.09832287 3.734787 0.109375 6.40234375 C-0.56351563 7.65724609 -0.56351563 7.65724609 -1.25 8.9375 C-1.71535156 9.81019531 -2.18070313 10.68289063 -2.66015625 11.58203125 C-3.32337891 12.77892578 -3.32337891 12.77892578 -4 14 C-4.556875 15.03125 -5.11375 16.0625 -5.6875 17.125 C-6.120625 17.74375 -6.55375 18.3625 -7 19 C-7.66 19 -8.32 19 -9 19 C-9.0825 19.721875 -9.165 20.44375 -9.25 21.1875 C-10 24 -10 24 -12.0625 26.25 C-14.73034637 30.03662066 -14.72762516 33.48195537 -14 38 C-11.76204175 41.35693737 -10.7810303 41.91970563 -7 43 C-4.96128755 42.8237956 -4.96128755 42.8237956 -3 42 C-2.175 41.71125 -1.35 41.4225 -0.5 41.125 C1.98068599 40.0086913 3.84387962 38.63567753 6 37 C6.66 37 7.32 37 8 37 C8 36.34 8 35.68 8 35 C9.175625 34.8453125 9.175625 34.8453125 10.375 34.6875 C13.33045181 34.22404978 13.33045181 34.22404978 15 31 C15.66 31 16.32 31 17 31 C17.495 29.515 17.495 29.515 18 28 C18.969375 27.87625 19.93875 27.7525 20.9375 27.625 C21.948125 27.41875 22.95875 27.2125 24 27 C24.33 26.34 24.66 25.68 25 25 C26.31328657 23.64691687 27.64499081 22.31129922 29 21 C29.66 21.33 30.32 21.66 31 22 C31.495 20.515 31.495 20.515 32 19 C34.28515625 18.05078125 34.28515625 18.05078125 37.0625 17.3125 C37.98160156 17.06113281 38.90070313 16.80976563 39.84765625 16.55078125 C40.55792969 16.36902344 41.26820313 16.18726563 42 16 C42 15.34 42 14.68 42 14 C42.66 14 43.32 14 44 14 C44 13.34 44 12.68 44 12 C44.99 12 45.98 12 47 12 C47.33 11.34 47.66 10.68 48 10 C48.66 9.67 49.32 9.34 50 9 C50.33 8.34 50.66 7.68 51 7 C54.81995829 5.38712872 57.05432816 4.79318931 61 6 C52.35167509 11.84311339 43.62750978 17.5431028 34.78759766 23.09228516 C29.96647532 26.12080287 25.16090904 29.17220876 20.37109375 32.25 C19.80636353 32.61265961 19.2416333 32.97531921 18.65979004 33.34896851 C15.86355828 35.14506959 13.06880979 36.94339388 10.27587891 38.74462891 C9.25800293 39.39866699 8.24012695 40.05270508 7.19140625 40.7265625 C6.28592041 41.31002441 5.38043457 41.89348633 4.44750977 42.49462891 C-0.32563523 45.43041066 -4.27814349 47.20404057 -10 46 C-14.22790554 43.68412971 -16.54514941 40.94468969 -18.625 36.625 C-19.51964825 27.97673358 -13.4601808 20.60264673 -8.9375 13.6875 C-8.30005859 12.69943359 -7.66261719 11.71136719 -7.00585938 10.69335938 C-4.69316079 7.11342868 -2.36412581 3.54618871 0 0 Z " fill="#2F207C" transform="translate(158,341)"/>
<path d="M0 0 C0.66 0 1.32 0 2 0 C2.15848862 8.08291961 1.65700671 16.05323566 0.93798828 24.09667969 C0.81209464 25.53873408 0.6939969 26.98148918 0.58349609 28.42480469 C0.42147126 30.54020863 0.23674648 32.65255944 0.046875 34.765625 C-0.11022949 36.63395996 -0.11022949 36.63395996 -0.27050781 38.54003906 C-1.26419097 43.25305034 -3.43256702 46.43256702 -6.8125 49.8125 C-9.94422668 51.5125802 -12.44377611 51.87737159 -16 52 C-26.88091376 47.51287746 -33.76083992 35.64837181 -40.78369141 26.56396484 C-42.49960477 24.3575937 -44.2474953 22.17735432 -46 20 C-45.01 19.67 -44.02 19.34 -43 19 C-42.01 19.66 -41.02 20.32 -40 21 C-40 22.32 -40 23.64 -40 25 C-39.01 25 -38.02 25 -37 25 C-36.67 26.65 -36.34 28.3 -36 30 C-35.01 29.67 -34.02 29.34 -33 29 C-32.34 29.66 -31.68 30.32 -31 31 C-31.33 31.66 -31.66 32.32 -32 33 C-29.36 33 -26.72 33 -24 33 C-24.33 34.98 -24.66 36.96 -25 39 C-22.28450846 41.30671915 -22.28450846 41.30671915 -19.8125 40.625 C-19.214375 40.41875 -18.61625 40.2125 -18 40 C-17.875 45.75 -17.875 45.75 -19 48 C-17.515 47.505 -17.515 47.505 -16 47 C-12.8125 47.9375 -12.8125 47.9375 -10 49 C-10.495 46.03 -10.495 46.03 -11 43 C-10.38125 42.71125 -9.7625 42.4225 -9.125 42.125 C-6.86674235 41.06279958 -6.86674235 41.06279958 -5 39 C-4.01 39.495 -4.01 39.495 -3 40 C-3.09539062 38.96101563 -3.19078125 37.92203125 -3.2890625 36.8515625 C-3.87327641 29.80458802 -4.30222616 23.44239618 -2.54296875 16.5234375 C-1.62589579 12.26135741 -1.49448324 7.93412528 -1.24609375 3.58984375 C-1 1 -1 1 0 0 Z " fill="#3526A1" transform="translate(368,344)"/>
<path d="M0 0 C0.99 0 1.98 0 3 0 C4.125 4.75 4.125 4.75 3 7 C3.66 7 4.32 7 5 7 C5.0825 7.7425 5.165 8.485 5.25 9.25 C6.14842053 12.5442086 7.58524799 13.66070899 10 16 C10.103125 16.66 10.20625 17.32 10.3125 18 C11.49130317 21.42924559 14.90263884 22.34069938 18 24 C18.33 24.66 18.66 25.32 19 26 C22.44450737 28.29633824 24.93812283 28.54016485 29 29 C29 29.66 29 30.32 29 31 C34.23349587 30.43287369 34.23349587 30.43287369 39.375 29.375 C41 29 41 29 43 30 C43.33 29.34 43.66 28.68 44 28 C45.84765625 27.3671875 45.84765625 27.3671875 48.0625 26.875 C48.79597656 26.70742187 49.52945313 26.53984375 50.28515625 26.3671875 C50.85105469 26.24601562 51.41695313 26.12484375 52 26 C52.33 24.35 52.66 22.7 53 21 C53.66 21 54.32 21 55 21 C55 21.66 55 22.32 55 23 C58.23891184 21.95211676 60.57636566 20.6420687 63.125 18.4375 C66 16 66 16 69 15 C69.185625 14.0409375 69.185625 14.0409375 69.375 13.0625 C69.58125 12.381875 69.7875 11.70125 70 11 C72.5625 9.75 72.5625 9.75 75 9 C69.87597083 20.11027479 59.37243053 27.09827521 48.2265625 31.2734375 C38.92605103 34.30834124 28.67925954 34.24609948 19.6015625 30.45703125 C10.72732249 25.48692386 4.58119103 18.14569293 0.6875 8.875 C-0.04368494 5.81731751 -0.14917199 3.13261188 0 0 Z " fill="#251B77" transform="translate(315,116)"/>
<path d="M0 0 C2.33944736 0.28730055 4.6739143 0.61936779 7 1 C3.72184091 4.62496686 -0.04016611 7.05797395 -4.1875 9.5625 C-5.61664901 10.44016406 -7.04500699 11.31911723 -8.47265625 12.19921875 C-9.21273926 12.65474121 -9.95282227 13.11026367 -10.71533203 13.57958984 C-14.5495741 15.96339198 -18.33787588 18.41726091 -22.125 20.875 C-22.82262451 21.32689697 -23.52024902 21.77879395 -24.23901367 22.24438477 C-28.1785896 24.80136916 -32.09778319 27.38636569 -36 30 C-36.66 29.67 -37.32 29.34 -38 29 C-36.125 24.25 -36.125 24.25 -35 22 C-34.01 22.33 -33.02 22.66 -32 23 C-31.67 22.67 -31.34 22.34 -31 22 C-26.32 19 -26.32 19 -24 19 C-23.979375 18.401875 -23.95875 17.80375 -23.9375 17.1875 C-23 15 -23 15 -19.75 13.4375 C-19.12480469 13.19902344 -18.49960937 12.96054687 -17.85546875 12.71484375 C-15.34163263 11.74635531 -13.17800467 10.5840034 -11 9 C-11 8.01 -11 7.02 -11 6 C-8.36 6.33 -5.72 6.66 -3 7 C-2.67 6.01 -2.34 5.02 -2 4 C-1.34 4 -0.68 4 0 4 C-0.495 2.515 -0.495 2.515 -1 1 C-0.67 0.67 -0.34 0.34 0 0 Z " fill="#4A2F8A" transform="translate(307,284)"/>
<path d="M0 0 C0.66 0 1.32 0 2 0 C2.18498115 8.17134108 1.55992028 16.19393279 0.77319336 24.31640625 C0.56029354 26.52286744 0.35685607 28.73006794 0.15429688 30.9375 C0.021389 32.34380263 -0.1120545 33.75005476 -0.24609375 35.15625 C-0.36654053 36.42275391 -0.4869873 37.68925781 -0.61108398 38.99414062 C-1 42 -1 42 -2 44 C-4.97 44 -7.94 44 -11 44 C-10.34 43.01 -9.68 42.02 -9 41 C-8.34 41 -7.68 41 -7 41 C-6.34 40.34 -5.68 39.68 -5 39 C-4.34 39.33 -3.68 39.66 -3 40 C-3.09539062 38.96101563 -3.19078125 37.92203125 -3.2890625 36.8515625 C-3.87327641 29.80458802 -4.30222616 23.44239618 -2.54296875 16.5234375 C-1.62589579 12.26135741 -1.49448324 7.93412528 -1.24609375 3.58984375 C-1 1 -1 1 0 0 Z " fill="#3E2676" transform="translate(368,344)"/>
<path d="M0 0 C0 0.33 0 0.66 0 1 C-1.0725 1.144375 -2.145 1.28875 -3.25 1.4375 C-5.91662949 1.83749442 -8.41399729 2.27591924 -11 3 C-11 3.99 -11 4.98 -11 6 C-12.98 6.33 -14.96 6.66 -17 7 C-17.33 7.99 -17.66 8.98 -18 10 C-19.175625 10.0928125 -19.175625 10.0928125 -20.375 10.1875 C-21.24125 10.455625 -22.1075 10.72375 -23 11 C-24.37466625 13.47636012 -24.37466625 13.47636012 -25 16 C-26.98 16 -28.96 16 -31 16 C-31 16.66 -31 17.32 -31 18 C-32.32 18 -33.64 18 -35 18 C-35.33 18.99 -35.66 19.98 -36 21 C-37.66666667 21.66666667 -39.33333333 22.33333333 -41 23 C-41.33 23.99 -41.66 24.98 -42 26 C-44.31 26.33 -46.62 26.66 -49 27 C-49.33 28.32 -49.66 29.64 -50 31 C-51.32 30.34 -52.64 29.68 -54 29 C-43.69616705 22.22970255 -43.69616705 22.22970255 -38.61547852 18.92407227 C-37.72548912 18.34501381 -37.72548912 18.34501381 -36.81752014 17.7542572 C-35.61248047 16.97031659 -34.40735091 16.18651413 -33.20213318 15.40284729 C-29.56545784 13.03389792 -25.95531414 10.62980725 -22.359375 8.19921875 C-20.71899256 7.11161323 -19.07838443 6.024348 -17.4375 4.9375 C-16.70877686 4.43186523 -15.98005371 3.92623047 -15.22924805 3.40527344 C-9.93270788 -0.05664581 -6.30885767 -0.49006859 0 0 Z " fill="#88529C" transform="translate(365,293)"/>
<path d="M0 0 C0.33 0 0.66 0 1 0 C1 1.98 1 3.96 1 6 C0.01 6.33 -0.98 6.66 -2 7 C-2.103125 7.7425 -2.20625 8.485 -2.3125 9.25 C-3.0575212 12.23008479 -4.13187337 13.60879792 -6 16 C-6.309375 16.804375 -6.61875 17.60875 -6.9375 18.4375 C-8.18353922 21.4426534 -9.96477762 23.47139038 -12 26 C-12.495 27.010625 -12.99 28.02125 -13.5 29.0625 C-15.01324885 32.02594566 -16.4614831 33.87092131 -19 36 C-19.66 36 -20.32 36 -21 36 C-21 36.99 -21 37.98 -21 39 C-21.66 39 -22.32 39 -23 39 C-21.74249015 35.68024679 -20.3261006 32.66897505 -18.49609375 29.62890625 C-18.00665283 28.81325195 -17.51721191 27.99759766 -17.01293945 27.15722656 C-16.49304443 26.3009668 -15.97314941 25.44470703 -15.4375 24.5625 C-14.63928833 23.24137207 -14.63928833 23.24137207 -13.82495117 21.89355469 C-10.54042783 16.47888879 -7.21739431 11.08986223 -3.8125 5.75 C-3.43859131 5.16033447 -3.06468262 4.57066895 -2.67944336 3.96313477 C-1.81481213 2.62325212 -0.91184689 1.30820789 0 0 Z " fill="#3E2779" transform="translate(182,302)"/>
<path d="M0 0 C1.0828125 0.2475 1.0828125 0.2475 2.1875 0.5 C4.86427545 0.97587119 7.28949487 1.077443 10 1 C6.51308585 4.89447555 2.4734264 7.41491395 -1.9375 10.125 C-2.64068359 10.56714844 -3.34386719 11.00929688 -4.06835938 11.46484375 C-7.62112544 13.66909036 -11.03006273 15.61712557 -15 17 C-15 16.01 -15 15.02 -15 14 C-14.01 14 -13.02 14 -12 14 C-12.33 12.68 -12.66 11.36 -13 10 C-12.34 10 -11.68 10 -11 10 C-11 10.66 -11 11.32 -11 12 C-10.01 11.01 -9.02 10.02 -8 9 C-8.99 8.67 -9.98 8.34 -11 8 C-7.71303767 7.20046862 -6.28976808 6.90341064 -3 8 C-3 7.34 -3 6.68 -3 6 C-2.34 6 -1.68 6 -1 6 C-0.67 4.02 -0.34 2.04 0 0 Z " fill="#3D2789" transform="translate(234,329)"/>
<path d="M0 0 C0.99 0 1.98 0 3 0 C4.125 4.75 4.125 4.75 3 7 C3.66 7 4.32 7 5 7 C5.0825 7.7425 5.165 8.485 5.25 9.25 C6.14842053 12.5442086 7.58524799 13.66070899 10 16 C10.103125 16.66 10.20625 17.32 10.3125 18 C11.50602745 21.47207986 14.84197031 22.39227579 18 24 C17.01 24.66 16.02 25.32 15 26 C7.74104571 21.85202612 3.13487708 15.82235557 0.45703125 7.8984375 C-0.1852959 5.23030932 -0.20439245 2.72523264 0 0 Z " fill="#352581" transform="translate(315,116)"/>
<path d="M0 0 C-3.78315308 2.53379764 -7.57781514 5.0497894 -11.375 7.5625 C-12.45523437 8.28630859 -13.53546875 9.01011719 -14.6484375 9.75585938 C-16.1953125 10.77583008 -16.1953125 10.77583008 -17.7734375 11.81640625 C-18.72653809 12.45006104 -19.67963867 13.08371582 -20.66162109 13.73657227 C-21.43328613 14.15350342 -22.20495117 14.57043457 -23 15 C-23.66 14.67 -24.32 14.34 -25 14 C-25 13.34 -25 12.68 -25 12 C-22.5 10.375 -22.5 10.375 -20 9 C-20.33 8.01 -20.66 7.02 -21 6 C-19.02 6.66 -17.04 7.32 -15 8 C-14.67 7.01 -14.34 6.02 -14 5 C-12.66666667 4.33333333 -11.33333333 3.66666667 -10 3 C-9.67 2.01 -9.34 1.02 -9 0 C-5.18354533 -2.16609589 -3.72319235 -2.11959991 0 0 Z " fill="#5D398D" transform="translate(367,252)"/>
<path d="M0 0 C2.33944736 0.28730055 4.6739143 0.61936779 7 1 C3.71903859 4.57551157 0.11816798 7.093411 -3.9375 9.6875 C-4.54529297 10.09033203 -5.15308594 10.49316406 -5.77929688 10.90820312 C-9.10904436 13.05260361 -11.98752376 14.80619524 -16 15 C-16.66 14.34 -17.32 13.68 -18 13 C-17.21625 12.54625 -16.4325 12.0925 -15.625 11.625 C-12.96301969 10.11571258 -12.96301969 10.11571258 -11 8 C-11 7.34 -11 6.68 -11 6 C-8.36 6.33 -5.72 6.66 -3 7 C-2.67 6.01 -2.34 5.02 -2 4 C-1.34 4 -0.68 4 0 4 C-0.33 3.01 -0.66 2.02 -1 1 C-0.67 0.67 -0.34 0.34 0 0 Z " fill="#583698" transform="translate(307,284)"/>
<path d="M0 0 C2.475 0.495 2.475 0.495 5 1 C5.33 2.65 5.66 4.3 6 6 C6.99 6 7.98 6 9 6 C9.33 7.65 9.66 9.3 10 11 C10.99 10.67 11.98 10.34 13 10 C15 12 15 12 15 16 C15.99 16 16.98 16 18 16 C18.33 18.31 18.66 20.62 19 23 C12.05540935 16.27242781 5.41131515 9.0349831 0 1 C0 0.67 0 0.34 0 0 Z " fill="#382580" transform="translate(322,363)"/>
<path d="M0 0 C1.16213504 3.48640512 0.99110102 6.21357548 0.83984375 9.84375 C0.84461682 12.29943268 0.84461682 12.29943268 3 15 C5.05003955 16.19232613 5.05003955 16.19232613 7 17 C7 17.66 7 18.32 7 19 C10.96 18.505 10.96 18.505 15 18 C13 20 13 20 9.3125 20.5 C4.91844823 20.37994394 2.52130377 18.79546133 -0.58203125 15.77734375 C-2.83578632 12.95238905 -3.55494626 10.56042991 -4 7 C-3.25 3.625 -3.25 3.625 -2 1 C-1.34 0.67 -0.68 0.34 0 0 Z " fill="#291D76" transform="translate(143,367)"/>
<path d="M0 0 C2.31 0 4.62 0 7 0 C-10.85830833 14.64180252 -10.85830833 14.64180252 -22 14 C-21.67 13.34 -21.34 12.68 -21 12 C-19.67851173 11.62243192 -18.34164079 11.2981424 -17 11 C-13.48888438 9.77110953 -10.9481544 8.23653093 -8 6 C-7.34 6 -6.68 6 -6 6 C-6 5.34 -6 4.68 -6 4 C-4.35 3.67 -2.7 3.34 -1 3 C-0.67 2.01 -0.34 1.02 0 0 Z " fill="#2A1F84" transform="translate(172,372)"/>
<path d="M0 0 C0.66 0.33 1.32 0.66 2 1 C1.67 2.32 1.34 3.64 1 5 C-2.6208201 6.01382963 -6.27811418 6.49897691 -10 7 C-10.04125 7.61875 -10.0825 8.2375 -10.125 8.875 C-10.558125 9.926875 -10.558125 9.926875 -11 11 C-12.99054876 11.69437747 -14.99255385 12.35610218 -17 13 C-19.15836145 14.53472654 -21.03028922 16.21788072 -23 18 C-19.29793778 9.41274227 -10.50922017 4.86979536 -2.50390625 0.93359375 C-1.67761719 0.62550781 -0.85132813 0.31742188 0 0 Z " fill="#6E3D7C" transform="translate(350,59)"/>
<path d="M0 0 C0.598125 0.309375 1.19625 0.61875 1.8125 0.9375 C4.08956772 2.10209704 4.08956772 2.10209704 7 3 C6.67 4.98 6.34 6.96 6 9 C8.475 9.99 8.475 9.99 11 11 C10.67 12.65 10.34 14.3 10 16 C5.91403748 14.47236536 4.20173821 11.88915809 1.75 8.375 C1.04359375 7.37210938 0.3371875 6.36921875 -0.390625 5.3359375 C-0.92171875 4.56507813 -1.4528125 3.79421875 -2 3 C-1 1 -1 1 0 0 Z " fill="#7B489F" transform="translate(184,198)"/>
<path d="M0 0 C0 4.06354909 -1.52984762 5.05170581 -4.25 8 C-5.03890625 8.86625 -5.8278125 9.7325 -6.640625 10.625 C-11.48765306 15.50412758 -14.26099954 16.43841663 -21 17 C-21 15.35 -21 13.7 -21 12 C-20.34 12 -19.68 12 -19 12 C-19 12.66 -19 13.32 -19 14 C-15.76108816 12.95211676 -13.42363434 11.6420687 -10.875 9.4375 C-8 7 -8 7 -5 6 C-4.855625 5.360625 -4.71125 4.72125 -4.5625 4.0625 C-4 2 -4 2 -1.9375 0.75 C-1.298125 0.5025 -0.65875 0.255 0 0 Z " fill="#392795" transform="translate(389,125)"/>
<path d="M0 0 C0.66 0.33 1.32 0.66 2 1 C1.89453125 2.734375 1.89453125 2.734375 1 5 C-1.0948401 6.60107723 -3.05594289 7.9269372 -5.3125 9.25 C-5.89451172 9.61351562 -6.47652344 9.97703125 -7.07617188 10.3515625 C-10.412304 12.36155377 -12.00335142 13 -16 13 C-16 12.01 -16 11.02 -16 10 C-14.5459375 9.814375 -14.5459375 9.814375 -13.0625 9.625 C-12.051875 9.41875 -11.04125 9.2125 -10 9 C-9.67 8.34 -9.34 7.68 -9 7 C-7.68671343 5.64691687 -6.35500919 4.31129922 -5 3 C-4.34 3.33 -3.68 3.66 -3 4 C-2.67 3.01 -2.34 2.02 -2 1 C-1.34 0.67 -0.68 0.34 0 0 Z " fill="#2F2184" transform="translate(192,359)"/>
<path d="M0 0 C0.33 0.99 0.66 1.98 1 3 C0.01 3.66 -0.98 4.32 -2 5 C-2 6.32 -2 7.64 -2 9 C-2.99 10.485 -2.99 10.485 -4 12 C-3.34 12 -2.68 12 -2 12 C-3 14 -3 14 -5 14.6875 C-5.66 14.790625 -6.32 14.89375 -7 15 C-8 14 -8 14 -8.25 10.125 C-8.20211632 6.30798678 -8.20211632 6.30798678 -6.6875 4 C-5 3 -5 3 -2 3 C-2 2.34 -2 1.68 -2 1 C-1.34 0.67 -0.68 0.34 0 0 Z " fill="#8C4FC5" transform="translate(313,322)"/>
<path d="M0 0 C0 0.99 0 1.98 0 3 C-1.32 3 -2.64 3 -4 3 C-4.33 3.99 -4.66 4.98 -5 6 C-6.66666667 6.66666667 -8.33333333 7.33333333 -10 8 C-10.33 8.99 -10.66 9.98 -11 11 C-13.31 11.33 -15.62 11.66 -18 12 C-18.33 13.32 -18.66 14.64 -19 16 C-20.32 15.34 -21.64 14.68 -23 14 C-19.54664796 11.65922674 -16.08652696 9.32866359 -12.625 7 C-11.64015625 6.33226562 -10.6553125 5.66453125 -9.640625 4.9765625 C-8.69960938 4.34492188 -7.75859375 3.71328125 -6.7890625 3.0625 C-5.91975098 2.47597656 -5.05043945 1.88945312 -4.15478516 1.28515625 C-2 0 -2 0 0 0 Z " fill="#6A408C" transform="translate(334,308)"/>
<path d="M0 0 C6.32749371 0.60171362 12.37595652 1.62151909 18.5625 3.0625 C19.38041016 3.24876953 20.19832031 3.43503906 21.04101562 3.62695312 C23.02835896 4.08020687 25.01433201 4.53946212 27 5 C27 5.33 27 5.66 27 6 C18.69946133 6.39736621 10.84456441 5.98314421 3 3 C1.97039699 2.0305065 0.96470019 1.03409552 0 0 Z " fill="#6F407F" transform="translate(274,161)"/>
<path d="M0 0 C1.21945312 -0.01417969 2.43890625 -0.02835938 3.6953125 -0.04296875 C6.875 0.1875 6.875 0.1875 9.875 2.1875 C6.875 3.1875 6.875 3.1875 3.875 2.1875 C3.545 2.8475 3.215 3.5075 2.875 4.1875 C2.545 3.5275 2.215 2.8675 1.875 2.1875 C0.225 2.1875 -1.425 2.1875 -3.125 2.1875 C-2.795 2.8475 -2.465 3.5075 -2.125 4.1875 C-6.415 4.1875 -10.705 4.1875 -15.125 4.1875 C-10.52945509 -0.40804491 -6.31741465 0.03353192 0 0 Z " fill="#B86EC6" transform="translate(364.125,57.8125)"/>
<path d="M0 0 C1 2 1 2 0.3984375 4.42578125 C-1.60599498 10.07950494 -3.16614609 14.31100623 -8 18 C-8.66 18 -9.32 18 -10 18 C-10 18.99 -10 19.98 -10 21 C-10.66 21 -11.32 21 -12 21 C-10.32508169 16.11963459 -7.63208039 12.00847052 -4.875 7.6875 C-4.40707031 6.94693359 -3.93914062 6.20636719 -3.45703125 5.44335938 C-2.30835804 3.62658032 -1.15467631 1.81296963 0 0 Z " fill="#332172" transform="translate(171,320)"/>
<path d="M0 0 C0.99 0.33 1.98 0.66 3 1 C2.34 1.66 1.68 2.32 1 3 C0.83322718 6.58343976 0.83322718 6.58343976 1 10 C-0.093125 10.103125 -1.18625 10.20625 -2.3125 10.3125 C-5.85559629 10.97307727 -6.93243723 11.2027092 -9 14 C-7.80055631 7.46969546 -4.92533226 4.33271206 0 0 Z " fill="#AD61CF" transform="translate(334,70)"/>
<path d="M0 0 C2.31 0.33 4.62 0.66 7 1 C7 1.99 7 2.98 7 4 C5.03125 5.60546875 5.03125 5.60546875 2.5 7.1875 C1.6646875 7.71730469 0.829375 8.24710937 -0.03125 8.79296875 C-0.6809375 9.19128906 -1.330625 9.58960938 -2 10 C-2.66 9.67 -3.32 9.34 -4 9 C-3.67 8.01 -3.34 7.02 -3 6 C-2.34 6 -1.68 6 -1 6 C-0.67 4.02 -0.34 2.04 0 0 Z " fill="#5E389A" transform="translate(323,272)"/>
<path d="M0 0 C-1.40091992 3.38555647 -2.79669811 5.18190974 -6 7 C-9.5625 7.8125 -9.5625 7.8125 -13 8 C-13.99 7.34 -14.98 6.68 -16 6 C-13.03 6 -10.06 6 -7 6 C-7 4.02 -7 2.04 -7 0 C-4.3333581 -1.33332095 -2.83319697 -0.67102033 0 0 Z " fill="#241970" transform="translate(365,388)"/>
<path d="M0 0 C0.99 0.33 1.98 0.66 3 1 C2.75 3.875 2.75 3.875 2 7 C0.25 8 0.25 8 -2 9 C-3.81267775 10.9053715 -5.37597116 12.92485204 -7 15 C-7 12.37886292 -6.68707555 10.49064888 -6 8 C-5.34 8 -4.68 8 -4 8 C-4 7.01 -4 6.02 -4 5 C-3.34 5 -2.68 5 -2 5 C-1.34 3.35 -0.68 1.7 0 0 Z " fill="#4C32B2" transform="translate(165,333)"/>
<path d="M0 0 C0.33 0 0.66 0 1 0 C1.08160748 1.89510699 1.13946459 3.79124504 1.1875 5.6875 C1.22230469 6.74324219 1.25710937 7.79898438 1.29296875 8.88671875 C0.96229249 12.40070518 0.1900188 14.24843792 -2 17 C-2.99 17 -3.98 17 -5 17 C-5 17.99 -5 18.98 -5 20 C-5.99 20.33 -6.98 20.66 -8 21 C-6.80481097 17.63174002 -5.24938914 14.68845419 -3.4375 11.625 C-1.1683326 7.640609 -0.2907258 4.55470421 0 0 Z " fill="#4D2F79" transform="translate(214,244)"/>
<path d="M0 0 C2.31 0 4.62 0 7 0 C6.67 1.98 6.34 3.96 6 6 C8.71549154 8.30671915 8.71549154 8.30671915 11.1875 7.625 C11.785625 7.41875 12.38375 7.2125 13 7 C11.1875 9 11.1875 9 9 11 C8.01 11 7.02 11 6 11 C6 10.34 6 9.68 6 9 C5.34 9 4.68 9 4 9 C3.67 6.69 3.34 4.38 3 2 C2.01 2 1.02 2 0 2 C0 1.34 0 0.68 0 0 Z " fill="#452EB3" transform="translate(337,377)"/>
<path d="M0 0 C0.66 0.33 1.32 0.66 2 1 C3.04959928 4.47175148 3.14928409 6.52229091 2.0625 10 C-0.66483861 13.96703798 -4.03363472 16.34319476 -8 19 C-8.66 18.67 -9.32 18.34 -10 18 C-10 17.34 -10 16.68 -10 16 C-8.68 16 -7.36 16 -6 16 C-6 15.01 -6 14.02 -6 13 C-5.34 13 -4.68 13 -4 13 C-4 12.34 -4 11.68 -4 11 C-2.68 10.34 -1.36 9.68 0 9 C0 6.03 0 3.06 0 0 Z " fill="#553271" transform="translate(427,200)"/>
<path d="M0 0 C1.010625 0.185625 2.02125 0.37125 3.0625 0.5625 C3.701875 0.706875 4.34125 0.85125 5 1 C5 1.33 5 1.66 5 2 C3.37191406 2.05607422 3.37191406 2.05607422 1.7109375 2.11328125 C0.26559261 2.17897875 -1.17971839 2.24542476 -2.625 2.3125 C-3.33785156 2.33505859 -4.05070313 2.35761719 -4.78515625 2.38085938 C-9.52586948 2.62006968 -12.82315355 3.54264397 -17 6 C-15.98839887 3.06635673 -15.00464842 2.00328791 -12.4375 0.1875 C-7.94673729 -1.36385439 -4.59580589 -0.85326543 0 0 Z " fill="#6A3A70" transform="translate(166,136)"/>
<path d="M0 0 C0 0.66 0 1.32 0 2 C-1.21623047 2.61488281 -1.21623047 2.61488281 -2.45703125 3.2421875 C-5.29364055 4.77668394 -5.29364055 4.77668394 -5.63671875 7.8828125 C-5.65347656 8.95273437 -5.67023438 10.02265625 -5.6875 11.125 C-5.73216579 13.08559305 -5.82218737 15.04697598 -6 17 C-6.66 17.33 -7.32 17.66 -8 18 C-9.60632723 14.78734554 -9.47931944 11.48478188 -9 8 C-4.7037037 0 -4.7037037 0 0 0 Z " fill="#4F2E6E" transform="translate(311,323)"/>
<path d="M0 0 C1.32 0.99 2.64 1.98 4 3 C0.04 5.64 -3.92 8.28 -8 11 C-8.66 10.67 -9.32 10.34 -10 10 C-9.875 8.1875 -9.875 8.1875 -9 6 C-5.79116175 4.04679411 -3.7794561 3 0 3 C0 2.01 0 1.02 0 0 Z " fill="#3D287E" transform="translate(259,316)"/>
<path d="M0 0 C0.33 0 0.66 0 1 0 C1.74304413 4.75548243 -0.26756947 7.56068738 -2.7109375 11.42578125 C-3.13632813 11.94527344 -3.56171875 12.46476562 -4 13 C-4.66 13 -5.32 13 -6 13 C-6 13.66 -6 14.32 -6 15 C-6.99 15.33 -7.98 15.66 -9 16 C-7.56786488 12.06342758 -5.69667846 8.71068644 -3.4375 5.1875 C-2.50744141 3.72376953 -2.50744141 3.72376953 -1.55859375 2.23046875 C-1.04425781 1.49441406 -0.52992188 0.75835937 0 0 Z " fill="#422A78" transform="translate(192,286)"/>
<path d="M0 0 C0.99 0 1.98 0 3 0 C4.125 4.75 4.125 4.75 3 7 C3.66 7 4.32 7 5 7 C5.144375 7.763125 5.28875 8.52625 5.4375 9.3125 C5.9632594 12.08172908 5.9632594 12.08172908 7 15 C5 15 5 15 3.5 13.875 C0.15575626 9.69469533 -0.24763784 5.20039463 0 0 Z " fill="#422B88" transform="translate(315,116)"/>
<path d="M0 0 C0.99 0 1.98 0 3 0 C3.33 1.65 3.66 3.3 4 5 C1.09427672 7.47524576 -1.15822926 8.69670231 -5 9 C-5.66 8.34 -6.32 7.68 -7 7 C-6.21625 6.54625 -5.4325 6.0925 -4.625 5.625 C-1.96301969 4.11571258 -1.96301969 4.11571258 0 2 C0 1.34 0 0.68 0 0 Z " fill="#5737A0" transform="translate(296,290)"/>
<path d="M0 0 C2.31 0 4.62 0 7 0 C3.97727468 3.25524265 0.74281699 5.61820737 -3 8 C-3.66 7.67 -4.32 7.34 -5 7 C-4.34 5.02 -3.68 3.04 -3 1 C-2.67 1.66 -2.34 2.32 -2 3 C-1.34 3 -0.68 3 0 3 C0 2.01 0 1.02 0 0 Z " fill="#693F90" transform="translate(399,226)"/>
<path d="M0 0 C0.33 0 0.66 0 1 0 C0.85899143 2.27113803 0.71203245 4.54190725 0.5625 6.8125 C0.48128906 8.07707031 0.40007812 9.34164063 0.31640625 10.64453125 C0 14 0 14 -1 17 C-3.64 17 -6.28 17 -9 17 C-8.01 15.515 -8.01 15.515 -7 14 C-6.34 14 -5.68 14 -5 14 C-4.34 13.34 -3.68 12.68 -3 12 C-2.34 12.33 -1.68 12.66 -1 13 C-1.01160156 12.39671875 -1.02320313 11.7934375 -1.03515625 11.171875 C-1.04417969 10.37265625 -1.05320312 9.5734375 -1.0625 8.75 C-1.07410156 7.96109375 -1.08570313 7.1721875 -1.09765625 6.359375 C-1.00385306 4.09308998 -0.63241063 2.1711105 0 0 Z " fill="#3D2A9A" transform="translate(366,371)"/>
<path d="M0 0 C0.99 0.33 1.98 0.66 3 1 C3.33 0.67 3.66 0.34 4 0 C4.99 0.33 5.98 0.66 7 1 C3.87378374 4.39417765 1.43458973 6.6062718 -3 8 C-2.45276317 4.62537285 -1.9451 2.91765 0 0 Z " fill="#4E3197" transform="translate(272,306)"/>
<path d="M0 0 C0 0.33 0 0.66 0 1 C-1.60875 1.2165625 -1.60875 1.2165625 -3.25 1.4375 C-5.91662949 1.83749442 -8.41399729 2.27591924 -11 3 C-11 3.99 -11 4.98 -11 6 C-13.97 6.66 -16.94 7.32 -20 8 C-13.81140445 1.81140445 -8.84941345 -0.9218139 0 0 Z " fill="#693973" transform="translate(365,293)"/>
<path d="M0 0 C7.8246759 0.67454103 15.34556614 2.26876958 23 4 C23 4.33 23 4.66 23 5 C19.37 5 15.74 5 12 5 C12 4.34 12 3.68 12 3 C10.700625 3.061875 10.700625 3.061875 9.375 3.125 C5.87641532 2.99542279 3.25448403 2.23980344 0 1 C0 0.67 0 0.34 0 0 Z " fill="#593065" transform="translate(220,149)"/>
<path d="M0 0 C0.99 0 1.98 0 3 0 C3.33 0.99 3.66 1.98 4 3 C-0.455 5.97 -0.455 5.97 -5 9 C-5.66 8.67 -6.32 8.34 -7 8 C-6.34 6.68 -5.68 5.36 -5 4 C-3.68 4.33 -2.36 4.66 -1 5 C-0.67 3.35 -0.34 1.7 0 0 Z " fill="#613B8F" transform="translate(374,242)"/>
<path d="M0 0 C0.33 1.32 0.66 2.64 1 4 C1.99 4 2.98 4 4 4 C4.33 6.64 4.66 9.28 5 12 C2.06799526 9.14723863 -0.64315404 6.34920216 -3 3 C-2 1 -2 1 0 0 Z " fill="#7F4B93" transform="translate(152,153)"/>
<path d="M0 0 C5.55216953 2.52371342 8.514344 7.20847864 12 12 C11.67 12.66 11.34 13.32 11 14 C8 13 8 13 6.97265625 11.2578125 C6.67230469 10.55398437 6.37195313 9.85015625 6.0625 9.125 C4.50706786 5.76190349 3.16470867 4.03445557 0 2 C0 1.34 0 0.68 0 0 Z " fill="#5A336B" transform="translate(384,63)"/>
<path d="M0 0 C2.31 0 4.62 0 7 0 C-2.71428571 8 -2.71428571 8 -6 8 C-6 6.68 -6 5.36 -6 4 C-4.35 3.67 -2.7 3.34 -1 3 C-0.67 2.01 -0.34 1.02 0 0 Z " fill="#231972" transform="translate(172,372)"/>
<path d="M0 0 C1.32 0.33 2.64 0.66 4 1 C4 1.66 4 2.32 4 3 C4.66 3 5.32 3 6 3 C6 3.66 6 4.32 6 5 C6.66 5 7.32 5 8 5 C8.33 5.99 8.66 6.98 9 8 C8.01 9.485 8.01 9.485 7 11 C5.83051998 9.35616456 4.6644855 7.70987731 3.5 6.0625 C2.8503125 5.14597656 2.200625 4.22945312 1.53125 3.28515625 C0 1 0 1 0 0 Z " fill="#764588" transform="translate(157,165)"/>
<path d="M0 0 C0 4.13781054 -1.71509607 5.20919996 -4.5 8.1875 C-5.3353125 9.08855469 -6.170625 9.98960937 -7.03125 10.91796875 C-7.6809375 11.60503906 -8.330625 12.29210937 -9 13 C-9.66 12.67 -10.32 12.34 -11 12 C-8.375 7.125 -8.375 7.125 -5 6 C-4.855625 5.360625 -4.71125 4.72125 -4.5625 4.0625 C-4 2 -4 2 -1.9375 0.75 C-1.298125 0.5025 -0.65875 0.255 0 0 Z " fill="#281B66" transform="translate(389,125)"/>
<path d="M0 0 C-0.28875 0.556875 -0.5775 1.11375 -0.875 1.6875 C-2.05907564 4.01411753 -2.05907564 4.01411753 -2.9375 6.625 C-4 9 -4 9 -7 11 C-6.74445946 9.53890937 -6.46999628 8.08111904 -6.1875 6.625 C-6.03667969 5.81289063 -5.88585937 5.00078125 -5.73046875 4.1640625 C-4.72269948 1.17847868 -3.19663259 0 0 0 Z " fill="#4C319A" transform="translate(178,314)"/>
<path d="M0 0 C0.99 0.33 1.98 0.66 3 1 C3 2.65 3 4.3 3 6 C2.01 6.495 2.01 6.495 1 7 C0.67 7.66 0.34 8.32 0 9 C-4 4.25 -4 4.25 -4 2 C-2.68 1.67 -1.36 1.34 0 1 C0 0.67 0 0.34 0 0 Z " fill="#7744A2" transform="translate(200,216)"/>
<path d="M0 0 C1.98 0.99 1.98 0.99 4 2 C4 2.99 4 3.98 4 5 C4.66 5 5.32 5 6 5 C6.33 7.31 6.66 9.62 7 12 C2.5991297 8.17819158 1.19194469 5.52628901 0 0 Z " fill="#794795" transform="translate(175,187)"/>
<path d="M0 0 C3.01177384 0.62007109 6.00895002 1.28685614 9 2 C9 2.33 9 2.66 9 3 C2.9453125 3.9765625 2.9453125 3.9765625 1 4 C0.34 3.34 -0.32 2.68 -1 2 C-3.43252661 1.53837573 -3.43252661 1.53837573 -6.125 1.375 C-7.03507812 1.30023438 -7.94515625 1.22546875 -8.8828125 1.1484375 C-9.58148438 1.09945312 -10.28015625 1.05046875 -11 1 C-7.06745047 -1.62169968 -4.40466309 -0.82492831 0 0 Z " fill="#673C7F" transform="translate(390,186)"/>
<path d="M0 0 C9.42857143 2.84065934 9.42857143 2.84065934 13 6 C13.99 6.66 14.98 7.32 16 8 C9.42367107 7.72015622 5.10707841 5.07639819 0 1 C0 0.67 0 0.34 0 0 Z " fill="#1F1763" transform="translate(327,140)"/>
<path d="M0 0 C-0.48210937 0.39832031 -0.96421875 0.79664063 -1.4609375 1.20703125 C-2.40839844 2.00173828 -2.40839844 2.00173828 -3.375 2.8125 C-4.00148437 3.33457031 -4.62796875 3.85664063 -5.2734375 4.39453125 C-7.2221048 6.08225739 -7.2221048 6.08225739 -9 9 C-9.36627907 3.50581395 -9.36627907 3.50581395 -7.6875 1.1875 C-4.73834913 -0.88782839 -3.44367871 -1.1478929 0 0 Z " fill="#BD70CD" transform="translate(158,139)"/>
<path d="M0 0 C1.20272819 2.40545638 1.10071472 3.94996953 1.0625 6.625 C1.05347656 7.44226563 1.04445312 8.25953125 1.03515625 9.1015625 C1.02355469 9.72804688 1.01195312 10.35453125 1 11 C0.34 10.34 -0.32 9.68 -1 9 C-3.10820797 9.3185177 -3.10820797 9.3185177 -5 10 C-3.66511872 6.40608886 -2.03977277 3.24509304 0 0 Z " fill="#4C2E84" transform="translate(198,276)"/>
<path d="M0 0 C0.66 0 1.32 0 2 0 C2 0.66 2 1.32 2 2 C4.31 1.34 6.62 0.68 9 0 C6.25604436 2.94721162 3.61662784 5.19168608 0 7 C-0.66 6.67 -1.32 6.34 -2 6 C-2 5.34 -2 4.68 -2 4 C-1.01 4 -0.02 4 1 4 C0.67 2.68 0.34 1.36 0 0 Z " fill="#2F1F72" transform="translate(221,339)"/>
<path d="M0 0 C2.97 0.495 2.97 0.495 6 1 C6.33 1.99 6.66 2.98 7 4 C9.64 3.67 12.28 3.34 15 3 C13 5 13 5 9.1875 5.4375 C5.51580183 5.37730823 5.03828113 5.03190094 2 2.5 C1.34 1.675 0.68 0.85 0 0 Z " fill="#1A135F" transform="translate(143,382)"/>
<path d="M0 0 C2.31 0.66 4.62 1.32 7 2 C7 3.65 7 5.3 7 7 C6.01 7.33 5.02 7.66 4 8 C3.67 6.35 3.34 4.7 3 3 C2.01 3 1.02 3 0 3 C0 2.01 0 1.02 0 0 Z " fill="#5535B8" transform="translate(328,366)"/>
<path d="M0 0 C0.33 0.99 0.66 1.98 1 3 C-4.625 7.875 -4.625 7.875 -8 9 C-7.42655063 6.13275314 -7.1385485 5.1385485 -5 3 C-4.01 3 -3.02 3 -2 3 C-2 2.34 -2 1.68 -2 1 C-1.34 0.67 -0.68 0.34 0 0 Z " fill="#9158C0" transform="translate(313,322)"/>
<path d="M0 0 C0 0.99 0 1.98 0 3 C-1.32 3 -2.64 3 -4 3 C-4.33 3.99 -4.66 4.98 -5 6 C-8 8 -8 8 -10.1875 7.625 C-10.785625 7.41875 -11.38375 7.2125 -12 7 C-10.3790787 5.82767315 -8.75313167 4.6622923 -7.125 3.5 C-6.22007812 2.8503125 -5.31515625 2.200625 -4.3828125 1.53125 C-2 0 -2 0 0 0 Z " fill="#64367D" transform="translate(334,308)"/>
<path d="M0 0 C-1.45449401 1.0055761 -2.91372443 2.00430435 -4.375 3 C-5.59316406 3.8353125 -5.59316406 3.8353125 -6.8359375 4.6875 C-9 6 -9 6 -11 6 C-11 5.01 -11 4.02 -11 3 C-9.68 3 -8.36 3 -7 3 C-7 2.01 -7 1.02 -7 0 C-3.86650268 -1.04449911 -3.01031744 -0.93423645 0 0 Z " fill="#533484" transform="translate(342,268)"/>
<path d="M0 0 C0.66 0 1.32 0 2 0 C2 0.66 2 1.32 2 2 C3.98 1.34 5.96 0.68 8 0 C7.814375 0.94875 7.62875 1.8975 7.4375 2.875 C6.71313368 5.89868793 6.71313368 5.89868793 8 8 C4.20645982 6.50968064 2.3521464 4.27620391 0 1 C0 0.67 0 0.34 0 0 Z " fill="#251A74" transform="translate(341,386)"/>
<path d="M0 0 C0.88336837 2.4667645 1.1312406 3.63859372 0.22265625 6.140625 C-0.16019531 6.83671875 -0.54304687 7.5328125 -0.9375 8.25 C-1.31777344 8.95640625 -1.69804687 9.6628125 -2.08984375 10.390625 C-2.39019531 10.92171875 -2.69054687 11.4528125 -3 12 C-3.99 11.67 -4.98 11.34 -6 11 C-4.54955729 6.89041233 -2.48889248 3.56741255 0 0 Z " fill="#2D1E71" transform="translate(158,341)"/>
<path d="M0 0 C1.32 0 2.64 0 4 0 C4 4.29 4 8.58 4 13 C3.34 13 2.68 13 2 13 C1.67 13.66 1.34 14.32 1 15 C1.66 11.04 2.32 7.08 3 3 C2.01 3 1.02 3 0 3 C0 2.01 0 1.02 0 0 Z " fill="#AB65C5" transform="translate(368,301)"/>
<path d="M0 0 C0.33 0 0.66 0 1 0 C1.33 1.98 1.66 3.96 2 6 C0.35 6.33 -1.3 6.66 -3 7 C-3 7.99 -3 8.98 -3 10 C-3.99 10.33 -4.98 10.66 -6 11 C-4.55007731 6.89188572 -2.54592427 3.53144334 0 0 Z " fill="#4B2D7A" transform="translate(205,265)"/>
<path d="M0 0 C1.32 0.66 2.64 1.32 4 2 C-0.455 4.97 -0.455 4.97 -5 8 C-5.66 7.67 -6.32 7.34 -7 7 C-7 6.34 -7 5.68 -7 5 C-5.68 5 -4.36 5 -3 5 C-3 4.01 -3 3.02 -3 2 C-2.01 1.34 -1.02 0.68 0 0 Z " fill="#663D88" transform="translate(413,218)"/>
<path d="M0 0 C5.7809725 0.63065155 11.3443706 1.65155132 17 3 C17 3.33 17 3.66 17 4 C13.37 4 9.74 4 6 4 C6 3.34 6 2.68 6 2 C3.03 1.505 3.03 1.505 0 1 C0 0.67 0 0.34 0 0 Z " fill="#5B326A" transform="translate(351,178)"/>
<path d="M0 0 C3 1 3 1 4.1796875 3.19921875 C5.06563092 6.2240827 5.2007492 8.66890834 5.125 11.8125 C5.10695313 12.78832031 5.08890625 13.76414062 5.0703125 14.76953125 C5.03550781 15.87361328 5.03550781 15.87361328 5 17 C4.67 17 4.34 17 4 17 C3.79503906 15.94039062 3.59007812 14.88078125 3.37890625 13.7890625 C3.10692334 12.40101178 2.83477956 11.01299256 2.5625 9.625 C2.42779297 8.92632812 2.29308594 8.22765625 2.15429688 7.5078125 C1.4227578 3.64371266 1.4227578 3.64371266 0 0 Z " fill="#935BBC" transform="translate(393,78)"/>
<path d="M0 0 C3.3 0 6.6 0 10 0 C10 1.32 10 2.64 10 4 C9.01 3.67 8.02 3.34 7 3 C7 2.34 7 1.68 7 1 C5.02 1.66 3.04 2.32 1 3 C0.67 2.01 0.34 1.02 0 0 Z " fill="#A75FCB" transform="translate(379,187)"/>
<path d="M0 0 C0.33 0.66 0.66 1.32 1 2 C0.06421005 4.35981813 -0.93347808 6.69631264 -2 9 C-2.66 9 -3.32 9 -4 9 C-4 9.66 -4 10.32 -4 11 C-4.66 11 -5.32 11 -6 11 C-4.54955729 6.89041233 -2.48889248 3.56741255 0 0 Z " fill="#60387D" transform="translate(326,77)"/>
<path d="M0 0 C0.66 0.66 1.32 1.32 2 2 C0.25 4 0.25 4 -2 6 C-3.32 6 -4.64 6 -6 6 C-6 5.01 -6 4.02 -6 3 C-4.02 2.67 -2.04 2.34 0 2 C0 1.34 0 0.68 0 0 Z " fill="#332391" transform="translate(182,366)"/>
<path d="M0 0 C1.98 0 3.96 0 6 0 C3.22719294 3.08089673 0.93673644 4.68775452 -3 6 C-3 4.68 -3 3.36 -3 2 C-2.01 2 -1.02 2 0 2 C0 1.34 0 0.68 0 0 Z " fill="#442B7A" transform="translate(288,298)"/>
<path d="M0 0 C7.42857143 -0.28571429 7.42857143 -0.28571429 11 2 C10.01 2.33 9.02 2.66 8 3 C7.67 3.99 7.34 4.98 7 6 C6.34 5.34 5.68 4.68 5 4 C5.33 3.34 5.66 2.68 6 2 C3.03 1.505 3.03 1.505 0 1 C0 0.67 0 0.34 0 0 Z " fill="#AC66C2" transform="translate(259,159)"/>
<path d="M0 0 C7.5 -0.375 7.5 -0.375 12 3 C8.37 3 4.74 3 1 3 C0.67 2.01 0.34 1.02 0 0 Z " fill="#BB6DCA" transform="translate(168,139)"/>
<path d="M0 0 C-3.20336822 2.83374881 -5.78087253 3.5205537 -10 4 C-10 3.01 -10 2.02 -10 1 C-3.71428571 -1.42857143 -3.71428571 -1.42857143 0 0 Z " fill="#362583" transform="translate(219,347)"/>
<path d="M0 0 C2.475 0.495 2.475 0.495 5 1 C5.99 3.97 6.98 6.94 8 10 C6.33333333 8.33333333 4.66666667 6.66666667 3 5 C2.401875 4.443125 1.80375 3.88625 1.1875 3.3125 C0 2 0 2 0 0 Z " fill="#472B72" transform="translate(304,341)"/>
<path d="M0 0 C0.99 0.33 1.98 0.66 3 1 C1.02 3.31 -0.96 5.62 -3 8 C-4.32 7.67 -5.64 7.34 -7 7 C-4.66666667 4.66666667 -2.33333333 2.33333333 0 0 Z " fill="#A760CC" transform="translate(330,311)"/>
<path d="M0 0 C0.8353125 0.556875 0.8353125 0.556875 1.6875 1.125 C-1.3125 3.125 -1.3125 3.125 -4 2.75 C-4.763125 2.54375 -5.52625 2.3375 -6.3125 2.125 C-6.6425 3.115 -6.9725 4.105 -7.3125 5.125 C-7.3125 3.805 -7.3125 2.485 -7.3125 1.125 C-2.88173077 -1.09038462 -2.88173077 -1.09038462 0 0 Z " fill="#6C43A5" transform="translate(365.3125,250.875)"/>
<path d="M0 0 C2.64 0 5.28 0 8 0 C8 0.99 8 1.98 8 3 C6.35 3.33 4.7 3.66 3 4 C2.67 3.01 2.34 2.02 2 1 C1.34 0.67 0.68 0.34 0 0 Z " fill="#A861C3" transform="translate(312,171)"/>
<path d="M0 0 C0 2.31 0 4.62 0 7 C-0.99 7 -1.98 7 -3 7 C-5 3.25 -5 3.25 -5 1 C-2 0 -2 0 0 0 Z " fill="#834EC4" transform="translate(398,95)"/>
<path d="M0 0 C3.36704285 -0.2295711 5.41370268 -0.33943529 8.375 1.375 C8.91125 1.91125 9.4475 2.4475 10 3 C10 3.66 10 4.32 10 5 C9.34 5 8.68 5 8 5 C8 4.34 8 3.68 8 3 C5.69 3 3.38 3 1 3 C0.67 2.01 0.34 1.02 0 0 Z " fill="#A15DCC" transform="translate(416,196)"/>
<path d="M0 0 C-5.17578125 3.22265625 -5.17578125 3.22265625 -7 4 C-7.99 3.67 -8.98 3.34 -10 3 C-10.33 2.34 -10.66 1.68 -11 1 C-9.5437328 0.63743142 -8.08488815 0.28520207 -6.625 -0.0625 C-5.40683594 -0.35833984 -5.40683594 -0.35833984 -4.1640625 -0.66015625 C-2 -1 -2 -1 0 0 Z " fill="#211765" transform="translate(374,142)"/>
<path d="M0 0 C2.375 -0.125 2.375 -0.125 5 0 C7 2 7 2 7 6 C3.31197956 4.77065985 2.27643027 3.06140622 0 0 Z " fill="#91589D" transform="translate(364,295)"/>
<path d="M0 0 C1.43791516 0.14168137 2.8753237 0.28851043 4.3125 0.4375 C5.11300781 0.51871094 5.91351563 0.59992188 6.73828125 0.68359375 C9 1 9 1 12 2 C11.67 2.66 11.34 3.32 11 4 C9.54054712 3.91291331 8.08234132 3.80473093 6.625 3.6875 C5.81289062 3.62949219 5.00078125 3.57148438 4.1640625 3.51171875 C2 3 2 3 0 0 Z " fill="#B36DC8" transform="translate(241,155)"/>
<path d="M0 0 C0.33 0.99 0.66 1.98 1 3 C1.99 3.33 2.98 3.66 4 4 C3.236875 4.268125 2.47375 4.53625 1.6875 4.8125 C-0.87380884 5.94424112 -2.19692938 6.91223401 -4 9 C-2.25 2.25 -2.25 2.25 0 0 Z " fill="#A060C6" transform="translate(329,75)"/>
<path d="M0 0 C2.475 0.495 2.475 0.495 5 1 C5.33 2.65 5.66 4.3 6 6 C3.37812506 4.95125002 2.20628639 4.35068687 0.75 1.875 C0.5025 1.25625 0.255 0.6375 0 0 Z " fill="#412B81" transform="translate(322,363)"/>
<path d="M0 0 C2 0.3125 2 0.3125 4 1 C4.33 1.66 4.66 2.32 5 3 C4.34 3.66 3.68 4.32 3 5 C2.67 4.34 2.34 3.68 2 3 C1.67 3.66 1.34 4.32 1 5 C0.01 5 -0.98 5 -2 5 C-1.125 1.125 -1.125 1.125 0 0 Z " fill="#BC68D2" transform="translate(155,152)"/>
<path d="M0 0 C2.86724686 0.57344937 3.8614515 0.8614515 6 3 C6 3.99 6 4.98 6 6 C4.68 6 3.36 6 2 6 C2 5.34 2 4.68 2 4 C1.34 3.67 0.68 3.34 0 3 C0.66 2.67 1.32 2.34 2 2 C1.34 1.34 0.68 0.68 0 0 Z " fill="#B467D0" transform="translate(384,66)"/>
<path d="M0 0 C0.7425 0.185625 1.485 0.37125 2.25 0.5625 C4.94990963 0.99203108 6.44631077 0.85122974 9 0 C7.1875 2 7.1875 2 5 4 C4.01 4 3.02 4 2 4 C2 3.34 2 2.68 2 2 C1.34 2 0.68 2 0 2 C0 1.34 0 0.68 0 0 Z " fill="#3C2AAE" transform="translate(341,384)"/>
<path d="M0 0 C1.65 0 3.3 0 5 0 C5.33 2.31 5.66 4.62 6 7 C1.125 2.25 1.125 2.25 0 0 Z " fill="#2B1E6B" transform="translate(335,379)"/>
<path d="M0 0 C-5.75 4 -5.75 4 -8 4 C-8 3.01 -8 2.02 -8 1 C-4.93251126 -0.86240388 -3.40254489 -1.2151946 0 0 Z " fill="#291C69" transform="translate(202,358)"/>
<path d="M0 0 C-2.52788007 2.79872437 -4.20411134 4.45773019 -8 5 C-8 4.01 -8 3.02 -8 2 C-4.77208445 -0.1519437 -3.71599191 -0.20086443 0 0 Z " fill="#533184" transform="translate(350,262)"/>
<path d="M0 0 C3.63 0.66 7.26 1.32 11 2 C11 2.33 11 2.66 11 3 C7.7 3 4.4 3 1 3 C0.67 2.01 0.34 1.02 0 0 Z " fill="#5F3474" transform="translate(406,190)"/>
<path d="M0 0 C0.28875 0.61875 0.5775 1.2375 0.875 1.875 C1.93720042 4.13325765 1.93720042 4.13325765 4 6 C3.34 7.65 2.68 9.3 2 11 C0 9 0 9 -0.1953125 6.8359375 C-0.17210937 6.02382812 -0.14890625 5.21171875 -0.125 4.375 C-0.10695313 3.55773437 -0.08890625 2.74046875 -0.0703125 1.8984375 C-0.04710937 1.27195312 -0.02390625 0.64546875 0 0 Z " fill="#5E3FA0" transform="translate(315,107)"/>
<path d="M0 0 C0.95465783 2.16967689 1.14401212 3.56328793 0.3984375 5.82421875 C-0.35870385 7.5684743 -1.17609198 9.28627131 -2 11 C-3.24386556 7.26840331 -2.77811718 4.81984796 -2 1 C-1.34 0.67 -0.68 0.34 0 0 Z " fill="#372166" transform="translate(397,107)"/>
<path d="M0 0 C0.928125 0.2784375 0.928125 0.2784375 1.875 0.5625 C4.04160178 1.23686176 4.04160178 1.23686176 6 0 C5.67 2.31 5.34 4.62 5 7 C3.29115995 5.37660195 1.62553283 3.70680947 0 2 C0 1.34 0 0.68 0 0 Z " fill="#69387F" transform="translate(168,180)"/>
<path d="M0 0 C1.43739513 -0.02712066 2.87493863 -0.04645067 4.3125 -0.0625 C5.51326172 -0.07990234 5.51326172 -0.07990234 6.73828125 -0.09765625 C9 0 9 0 12 1 C12 1.66 12 2.32 12 3 C10.35 3 8.7 3 7 3 C7 2.34 7 1.68 7 1 C4.69 1 2.38 1 0 1 C0 0.67 0 0.34 0 0 Z " fill="#A964C9" transform="translate(345,179)"/>
<path d="M0 0 C1.32 0.33 2.64 0.66 4 1 C3.67 1.66 3.34 2.32 3 3 C3.99 3.33 4.98 3.66 6 4 C5.67 4.66 5.34 5.32 5 6 C3.0625 5.25 3.0625 5.25 1 4 C0.25 1.875 0.25 1.875 0 0 Z " fill="#A763C8" transform="translate(167,176)"/>
<path d="M0 0 C1.65 0 3.3 0 5 0 C5 1.32 5 2.64 5 4 C3.35 3.67 1.7 3.34 0 3 C0 2.01 0 1.02 0 0 Z " fill="#BB68D1" transform="translate(235,154)"/>
<path d="M0 0 C0 0.99 0 1.98 0 3 C-2.64 3.66 -5.28 4.32 -8 5 C-5.47211993 2.20127563 -3.79588866 0.54226981 0 0 Z " fill="#794787" transform="translate(347,300)"/>
<path d="M0 0 C1.32 0.33 2.64 0.66 4 1 C-1.75 5 -1.75 5 -4 5 C-4.33 4.01 -4.66 3.02 -5 2 C-3.35 2 -1.7 2 0 2 C0 1.34 0 0.68 0 0 Z " fill="#452B7C" transform="translate(304,289)"/>
<path d="M0 0 C-1.375 1.5 -1.375 1.5 -3 3 C-3.66 3 -4.32 3 -5 3 C-5 2.34 -5 1.68 -5 1 C-5.99 0.67 -6.98 0.34 -8 0 C-5.13822943 -1.43088528 -3.06624227 -0.59991697 0 0 Z " fill="#4B32AA" transform="translate(231,337)"/>
<path d="M0 0 C0.66 0.33 1.32 0.66 2 1 C-1.75 7.875 -1.75 7.875 -4 9 C-3.67 7.35 -3.34 5.7 -3 4 C-2.01 3.67 -1.02 3.34 0 3 C0 2.01 0 1.02 0 0 Z " fill="#6E47B8" transform="translate(202,272)"/>
<path d="M0 0 C6.625 -0.25 6.625 -0.25 10 2 C6.6875 2.6875 6.6875 2.6875 3 3 C1.0625 1.5625 1.0625 1.5625 0 0 Z " fill="#AA67C0" transform="translate(294,167)"/>
<path d="M0 0 C0 2.31 0 4.62 0 7 C-0.99 6.67 -1.98 6.34 -3 6 C-3.33 4.35 -3.66 2.7 -4 1 C-2 0 -2 0 0 0 Z " fill="#B269CB" transform="translate(160,159)"/>
<path d="M0 0 C0.33 2.64 0.66 5.28 1 8 C-0.65 6.35 -2.3 4.7 -4 3 C-3.00748537 1.01497074 -2.38353202 0 0 0 Z " fill="#6B3C76" transform="translate(153,153)"/>
<path d="M0 0 C0.99 0.33 1.98 0.66 3 1 C2.67 1.66 2.34 2.32 2 3 C1.34 3 0.68 3 0 3 C-0.66 4.65 -1.32 6.3 -2 8 C-3.24546405 5.50907189 -2.7767578 4.58919267 -2 2 C-1.34 2 -0.68 2 0 2 C0 1.34 0 0.68 0 0 Z " fill="#9056BE" transform="translate(322,86)"/>
<path d="M0 0 C0.66 0 1.32 0 2 0 C1.67 1.65 1.34 3.3 1 5 C-0.32 4.67 -1.64 4.34 -3 4 C-1.625 2 -1.625 2 0 0 Z " fill="#8B539B" transform="translate(338,65)"/>
</svg>
